<?xml version="1.0" encoding="utf-8"?>
<!-- Generator: Adobe Illustrator 27.7.0, SVG Export Plug-In . SVG Version: 6.00 Build 0)  -->
<svg version="1.1" id="Layer_1" xmlns="http://www.w3.org/2000/svg" xmlns:xlink="http://www.w3.org/1999/xlink" x="0px" y="0px"
	 viewBox="0 0 620 80" style="enable-background:new 0 0 620 80;" xml:space="preserve">
<style type="text/css">
	.st0{fill:#FFFFFF;}
</style>
<g>
	<path class="st0" d="M34.81,14.24h27.8c10.14,0,16.31,6.19,16.31,15.34c0,12.96-10.53,19.44-24.31,19.44H41.54l-3.88,16.63H22.93
		L34.81,14.24z M44.08,38h10.37c6.81,0,9.74-2.95,9.74-7.2c0-4.97-4.28-5.54-8.87-5.54h-8.32L44.08,38z"/>
	<path class="st0" d="M87.9,14.24h14.73l-4.28,18.72h19.64l4.28-18.72H137l-11.8,51.41h-14.73l4.83-21.17H95.66l-4.83,21.17H76.1
		L87.9,14.24z"/>
	<path class="st0" d="M161.74,14.24h14.89l9.27,51.41h-14.81l-1.35-9.22h-19.88l-5.7,9.22h-15.44L161.74,14.24z M155.56,46.5h12.91
		l-2.14-18.5h-0.16L155.56,46.5z"/>
	<path class="st0" d="M200.55,14.24h27.72c10.29,0,18.13,2.38,18.13,13.32c0,7.7-4.04,13.18-12.91,14.33v0.14
		c4.2,0.94,5.78,3.6,5.78,8.57c0,3.75-0.24,6.62-0.24,9.58c0,1.8,0,4.03,0.87,5.47H225.1c-0.24-1.01-0.48-1.94-0.48-2.95
		c0-2.66,0.4-5.4,0.4-8.86c0-4.54-2.14-6.91-7.37-6.91h-9.82l-4.28,18.72h-14.73L200.55,14.24z M210.06,36.99h11.72
		c5.31,0,9.9-1.51,9.9-7.06c0-4.39-4.04-5.33-7.92-5.33h-10.85L210.06,36.99z"/>
	<path class="st0" d="M257.85,14.24h20.27l2.69,36.65h0.16l19.48-36.65h20.27l-11.8,51.41H295l10.61-40.83h-0.16l-22.33,40.83
		h-11.32l-3.33-40.83h-0.16l-8.39,40.83h-13.94L257.85,14.24z"/>
	<path class="st0" d="M345.76,14.24h14.89l9.27,51.41h-14.81l-1.35-9.22h-19.88l-5.7,9.22h-15.44L345.76,14.24z M339.59,46.5h12.91
		l-2.14-18.5h-0.16L339.59,46.5z"/>
	<path class="st0" d="M391.67,65.65h-8.47l-8.08-51.41h7.68l5.78,44.72h0.16l26.85-44.72h8L391.67,65.65z"/>
	<path class="st0" d="M466.4,45.06c-0.95,3.96-1.9,7.85-2.85,9.87c-3.8,8.5-12.43,11.95-22.02,11.95
		c-16.55,0-23.76-8.06-20.51-22.39l7.05-30.24h7.52l-7.44,31.97c-2.53,9.94,2.46,14.91,13.38,14.91c12.35,0,15.05-6.41,17.26-16.06
		l7.13-30.82h7.52L466.4,45.06z"/>
	<path class="st0" d="M483.95,14.24h38.96L521.65,20h-31.44l-3.8,16.35h29.3l-1.27,5.76h-29.38l-4.12,17.79h31.84l-1.43,5.76h-39.36
		L483.95,14.24z"/>
</g>
<g>
	<path class="st0" d="M563.18,36.18l10.13-18.57l-4.29,28.83l5.07-10.36h22.43c0.6-2.04,0.91-4.19,0.91-6.46
		c0-2.7-0.42-5.03-1.26-7.01c-0.84-1.98-1.96-3.62-3.36-4.92c-1.4-1.3-3.01-2.28-4.84-2.92c-1.83-0.64-3.71-0.97-5.66-0.97
		c-1.88,0-3.57,0.22-5.06,0.67c-1.5,0.45-2.85,1.06-4.05,1.82c-1.2,0.76-2.27,1.63-3.19,2.61c-0.92,0.97-1.71,1.97-2.37,2.99h-0.44
		c-0.66-1.02-1.44-2.01-2.35-2.99c-0.91-0.97-1.96-1.84-3.16-2.61c-1.2-0.76-2.55-1.37-4.05-1.82c-1.5-0.45-3.19-0.67-5.07-0.67
		c-1.94,0-3.83,0.32-5.66,0.97c-1.83,0.64-3.44,1.62-4.84,2.92c-1.4,1.3-2.52,2.94-3.36,4.92c-0.84,1.98-1.26,4.31-1.26,7.01
		c0,2.31,0.32,4.49,0.95,6.56H563.18z"/>
	<path class="st0" d="M575.61,39.33l-11.35,23.45l4.63-31.52l-4.85,8.23H539.7c0.95,2.04,2.11,3.98,3.49,5.81
		c1.71,2.28,3.65,4.41,5.81,6.4c2.16,1.99,4.34,3.89,6.55,5.71c2.21,1.81,4.33,3.55,6.37,5.21s3.81,3.29,5.29,4.87h0.44
		c1.48-1.59,3.25-3.21,5.31-4.87s4.19-3.4,6.4-5.21c2.21-1.81,4.39-3.71,6.55-5.71c2.16-1.99,4.09-4.12,5.81-6.4
		c1.41-1.88,2.59-3.87,3.56-5.97H575.61z"/>
</g>
</svg>
