<?xml version="1.0" encoding="UTF-8"?>
<svg id="Layer_1" data-name="Layer 1" xmlns="http://www.w3.org/2000/svg" viewBox="0 0 577.35 53.68">
  <defs>
    <style>
      .cls-1 {
        fill: #fff;
      }
    </style>
  </defs>
  <g>
    <path class="cls-1" d="m11.88.44h27.8c10.14,0,16.31,6.19,16.31,15.34,0,12.96-10.53,19.44-24.31,19.44h-13.07l-3.88,16.63H0L11.88.44Zm9.27,23.76h10.37c6.81,0,9.74-2.95,9.74-7.2,0-4.97-4.28-5.54-8.87-5.54h-8.32l-2.93,12.75Z"/>
    <path class="cls-1" d="m64.97.44h14.73l-4.28,18.72h19.64L99.34.44h14.73l-11.8,51.41h-14.73l4.83-21.17h-19.64l-4.83,21.17h-14.73L64.97.44Z"/>
    <path class="cls-1" d="m138.8.44h14.89l9.27,51.41h-14.81l-1.35-9.22h-19.88l-5.7,9.22h-15.44L138.8.44Zm-6.18,32.26h12.91l-2.14-18.5h-.16l-10.61,18.5Z"/>
    <path class="cls-1" d="m177.62.44h27.72c10.29,0,18.13,2.38,18.13,13.32,0,7.7-4.04,13.18-12.91,14.33v.14c4.2.94,5.78,3.6,5.78,8.57,0,3.75-.24,6.62-.24,9.58,0,1.8,0,4.03.87,5.47h-14.81c-.24-1.01-.48-1.94-.48-2.95,0-2.66.4-5.4.4-8.86,0-4.54-2.14-6.91-7.37-6.91h-9.82l-4.28,18.72h-14.73L177.62.44Zm9.5,22.75h11.72c5.31,0,9.9-1.51,9.9-7.06,0-4.39-4.04-5.33-7.92-5.33h-10.85l-2.85,12.38Z"/>
    <path class="cls-1" d="m234.92.44h20.27l2.69,36.65h.16L277.53.44h20.27l-11.8,51.41h-13.94l10.61-40.83h-.16l-22.33,40.83h-11.32l-3.33-40.83h-.16l-8.39,40.83h-13.94L234.92.44Z"/>
    <path class="cls-1" d="m322.83.44h14.89l9.27,51.41h-14.81l-1.35-9.22h-19.88l-5.7,9.22h-15.44L322.83.44Zm-6.18,32.26h12.91l-2.14-18.5h-.16l-10.61,18.5Z"/>
    <path class="cls-1" d="m368.73,51.85h-8.47L352.18.44h7.68l5.78,44.72h.16L392.65.44h8l-31.92,51.41Z"/>
    <path class="cls-1" d="m443.46,31.25c-.95,3.96-1.9,7.85-2.85,9.87-3.8,8.5-12.43,11.95-22.02,11.95-16.55,0-23.76-8.06-20.51-22.39l7.05-30.24h7.52l-7.44,31.97c-2.53,9.94,2.46,14.91,13.38,14.91,12.35,0,15.05-6.41,17.26-16.06l7.13-30.82h7.52l-7.05,30.82Z"/>
    <path class="cls-1" d="m461.02.44h38.96l-1.27,5.76h-31.44l-3.8,16.35h29.3l-1.27,5.76h-29.38l-4.12,17.79h31.84l-1.43,5.76h-39.36L461.02.44Z"/>
  </g>
  <g>
    <path class="cls-1" d="m541.2,22.37l14.08-18.57-10.41,28.83,7.27-10.36h22.43c1.04-2.04,1.8-4.19,2.28-6.46.57-2.7.65-5.03.23-7.01-.42-1.98-1.19-3.62-2.31-4.92-1.12-1.3-2.53-2.28-4.22-2.92-1.69-.64-3.51-.97-5.45-.97s-3.61.22-5.21.67c-1.6.45-3.07,1.06-4.44,1.82-1.37.76-2.61,1.63-3.74,2.61-1.13.97-2.13,1.97-3.01,2.99h-.44c-.44-1.02-1.01-2.01-1.71-2.99-.7-.97-1.57-1.84-2.61-2.61-1.04-.76-2.26-1.37-3.67-1.82-1.4-.45-3.04-.67-4.92-.67s-3.9.32-5.86.97c-1.97.64-3.79,1.62-5.46,2.92-1.68,1.3-3.15,2.94-4.41,4.92-1.26,1.98-2.18,4.31-2.75,7.01-.49,2.31-.63,4.49-.45,6.56h24.78Z"/>
    <path class="cls-1" d="m552.96,25.52l-16.33,23.45,11.33-31.52-6.6,8.23h-24.35c.52,2.04,1.26,3.98,2.25,5.81,1.23,2.28,2.71,4.41,4.45,6.4,1.73,1.99,3.51,3.89,5.33,5.71,1.82,1.81,3.58,3.55,5.27,5.21s3.11,3.29,4.25,4.87h.44c1.82-1.59,3.94-3.21,6.35-4.87s4.91-3.4,7.51-5.21c2.59-1.81,5.18-3.71,7.76-5.71,2.58-1.99,4.97-4.12,7.17-6.4,1.81-1.88,3.42-3.87,4.83-5.97h-19.65Z"/>
  </g>
</svg>